<?xml version="1.0" standalone="no"?>
<!DOCTYPE svg PUBLIC "-//W3C//DTD SVG 20010904//EN"
 "http://www.w3.org/TR/2001/REC-SVG-20010904/DTD/svg10.dtd">
<svg version="1.0" xmlns="http://www.w3.org/2000/svg"
 width="512.000000pt" height="512.000000pt" viewBox="0 0 512.000000 512.000000"
 preserveAspectRatio="xMidYMid meet">
<metadata>
Created by potrace 1.11, written by Peter Selinger 2001-2013
</metadata>
<g transform="translate(0.000000,512.000000) scale(0.100000,-0.100000)"
fill="#000000" stroke="none">
<path d="M958 4785 c-2 -2 -34 -5 -73 -9 -430 -36 -801 -388 -873 -829 -8 -51
-9 -257 0 -312 45 -312 270 -607 561 -739 501 -227 1078 -17 1313 479 41 86
81 221 86 293 4 51 13 37 25 -40 50 -307 251 -578 531 -717 387 -193 852 -116
1150 191 154 159 233 318 277 563 6 35 7 210 1 240 -2 11 -7 41 -10 67 -9 63
-49 185 -87 261 -98 196 -270 364 -470 459 -115 55 -279 91 -424 92 -48 0
-167 -12 -186 -19 -8 -2 -25 -6 -39 -9 -41 -7 -121 -35 -187 -66 -303 -142
-530 -453 -560 -768 -3 -34 -7 -61 -9 -59 -2 1 -6 25 -10 52 -3 28 -8 59 -11
70 -2 11 -6 30 -9 43 -9 42 -36 116 -70 190 -87 190 -255 362 -451 461 -73 36
-193 78 -249 86 -106 15 -220 25 -226 20z m162 -607 c150 -59 249 -178 270
-326 12 -86 2 -149 -35 -227 -70 -149 -202 -233 -365 -233 -84 0 -144 18 -216
63 -180 114 -239 348 -136 542 44 84 136 155 243 187 54 16 191 12 239 -6z
m1973 3 c209 -70 325 -286 267 -496 -19 -72 -75 -159 -127 -202 -74 -59 -149
-87 -244 -90 -48 -1 -102 3 -120 9 -211 69 -329 259 -294 473 23 139 148 271
295 310 56 15 172 13 223 -4z m-1106 -463 c-3 -8 -6 -5 -6 6 -1 11 2 17 5 13
3 -3 4 -12 1 -19z"/>
<path d="M1614 2800 c-5 -5 -48 -29 -95 -54 -299 -155 -686 -167 -986 -30
l-72 33 -48 -36 c-86 -63 -158 -176 -182 -281 -5 -25 -9 -374 -9 -850 0 -654
3 -817 14 -860 52 -199 219 -352 414 -380 25 -3 635 -6 1355 -6 1228 0 1314 1
1370 18 96 29 156 64 220 129 74 75 111 140 135 233 17 66 18 128 18 861 0
439 -4 809 -9 831 -27 124 -89 225 -181 299 l-52 42 -35 -16 c-87 -37 -193
-73 -267 -89 -129 -28 -336 -28 -479 1 -106 21 -268 85 -357 141 l-38 24 -353
0 c-214 0 -357 -4 -363 -10z"/>
<path d="M4810 2567 c-25 -13 -91 -50 -146 -83 -56 -32 -246 -142 -423 -244
l-320 -185 -1 -487 0 -487 118 -69 c827 -487 832 -489 930 -463 49 14 107 67
129 119 22 53 28 1740 6 1792 -47 113 -182 163 -293 107z"/>
</g>
</svg>
